<?xml version="1.0" encoding="UTF-8"?>
<svg id="Layer_1" data-name="Layer 1" xmlns="http://www.w3.org/2000/svg" viewBox="0 0 713.7 709.29">
  <defs>
    <style>
      .cls-1 {
        fill: #fff;
      }
    </style>
  </defs>
  <path class="cls-1" d="M678.7,599.09v9.2c0,36.39-29.61,66-66,66H101c-36.39,0-66-29.61-66-66v-9.2H678.7m14.26-35H20.74c-11.46,0-20.74,9.29-20.74,20.74v23.46c0,55.78,45.22,101,101,101h511.71c55.78,0,101-45.22,101-101v-23.46c0-11.46-9.29-20.74-20.74-20.74h0Z"/>
  <path class="cls-1" d="M544.49,190.06c35.85,0,69.55,13.96,94.9,39.31,25.35,25.35,39.31,59.05,39.31,94.9v25.34s-643.7,0-643.7,0v-25.34c0-35.85,13.96-69.55,39.31-94.9,25.35-25.35,59.05-39.31,94.9-39.31h375.29m0-35H169.2C75.76,155.06,0,230.82,0,324.27v25.59c0,19.19,15.56,34.75,34.75,34.75H678.95c19.19,0,34.75-15.56,34.75-34.75v-25.59c0-93.45-75.76-169.2-169.2-169.2h0Z"/>
  <path class="cls-1" d="M660.32,480.99c12.27,0,22.26,9.98,22.26,22.26v18.58c0,12.27-9.98,22.26-22.26,22.26H53.38c-12.27,0-22.26-9.98-22.26-22.26v-18.58c0-12.27,9.98-22.26,22.26-22.26H660.32m0-14H53.38c-20.02,0-36.26,16.23-36.26,36.26v18.58c0,20.02,16.23,36.26,36.26,36.26H660.32c20.02,0,36.26-16.23,36.26-36.26v-18.58c0-20.02-16.23-36.26-36.26-36.26h0Z"/>
  <polygon class="cls-1" points="694.52 440.45 19.18 440.45 19.18 460.99 694.52 460.99 694.52 440.45 694.52 440.45"/>
  <g>
    <rect class="cls-1" x="389.65" y="401.72" width="276.41" height="25.73"/>
    <path class="cls-1" d="M659.06,408.72v11.73H396.65v-11.73h262.41m14-14H382.65v39.73h290.41v-39.73h0Z"/>
  </g>
  <g>
    <rect class="cls-1" x="43.98" y="401.72" width="276.41" height="25.73"/>
    <path class="cls-1" d="M313.39,408.72v11.73H50.98v-11.73H313.39m14-14H36.98v39.73H327.39v-39.73h0Z"/>
  </g>
  <rect class="cls-1" x="350.62" width="12.45" height="155.06"/>
  <circle class="cls-1" cx="356.85" cy="64.56" r="34.67"/>
</svg>